# xmcd CD database file
#
# Track frame offsets:
#	150
#	23366
#	44689
#	68463
#	84547
#	110104
#	128644
#	143836
#	162595
#	180295
#	198385
#	218635
#
# Disc length: 3127 seconds
#
# Revision: 0
# Processed by: cddbd v1.5.2PL0 Copyright (c) Steve Scherf et al.
# Submitted via: CDex 1.51
#
DISCID=9f0c350c
DTITLE=Jimmy Cornett and the Deadmen - Raise the Dust
DYEAR=2012
DGENRE=Blues
TTITLE0=Feels like coming home
TTITLE1=Forgotten Child
TTITLE2=Road to Heaven
TTITLE3=Sitting on the Rooftop
TTITLE4=Little Lil
TTITLE5=Rock´n Roll
TTITLE6=Dove and the Waterline
TTITLE7=Purple Rain
TTITLE8=Rolling 81
TTITLE9=Raise the Dust
TTITLE10=Soulshine
TTITLE11=I follow Rivers
EXTD=YEAR: 2012
EXTT0=
EXTT1=
EXTT2=
EXTT3=
EXTT4=
EXTT5=
EXTT6=
EXTT7=
EXTT8=
EXTT9=
EXTT10=
EXTT11=
PLAYORDER=
